<mxfile host="app.diagrams.net" modified="2023-02-22T06:11:41.191Z" agent="5.0 (Windows)" etag="UVTwPXdPvgpM5qi9RiXs" version="20.8.18" type="github">
  <diagram id="C5RBs43oDa-KdzZeNtuy" name="Page-1">
    <mxGraphModel dx="607" dy="782" grid="1" gridSize="10" guides="1" tooltips="1" connect="1" arrows="1" fold="1" page="1" pageScale="1" pageWidth="827" pageHeight="1169" math="0" shadow="0">
      <root>
        <mxCell id="WIyWlLk6GJQsqaUBKTNV-0" />
        <mxCell id="WIyWlLk6GJQsqaUBKTNV-1" parent="WIyWlLk6GJQsqaUBKTNV-0" />
        <mxCell id="ZSL9aYJ1CrrZI9BVu0jY-0" style="edgeStyle=orthogonalEdgeStyle;rounded=0;orthogonalLoop=1;jettySize=auto;html=1;exitX=0.5;exitY=1;exitDx=0;exitDy=0;entryX=0.5;entryY=0;entryDx=0;entryDy=0;" edge="1" parent="WIyWlLk6GJQsqaUBKTNV-1" source="ZSL9aYJ1CrrZI9BVu0jY-1" target="ZSL9aYJ1CrrZI9BVu0jY-19">
          <mxGeometry relative="1" as="geometry" />
        </mxCell>
        <mxCell id="ZSL9aYJ1CrrZI9BVu0jY-1" value="开始" style="rounded=1;whiteSpace=wrap;html=1;fontSize=12;glass=0;strokeWidth=1;shadow=0;" vertex="1" parent="WIyWlLk6GJQsqaUBKTNV-1">
          <mxGeometry x="1146" y="120" width="120" height="40" as="geometry" />
        </mxCell>
        <mxCell id="ZSL9aYJ1CrrZI9BVu0jY-2" value="FMISPurchaseOrder" style="rounded=1;whiteSpace=wrap;html=1;" vertex="1" parent="WIyWlLk6GJQsqaUBKTNV-1">
          <mxGeometry x="1146" y="30" width="120" height="60" as="geometry" />
        </mxCell>
        <mxCell id="ZSL9aYJ1CrrZI9BVu0jY-3" value="" style="edgeStyle=orthogonalEdgeStyle;rounded=0;orthogonalLoop=1;jettySize=auto;html=1;entryX=0;entryY=0.5;entryDx=0;entryDy=0;" edge="1" parent="WIyWlLk6GJQsqaUBKTNV-1" source="ZSL9aYJ1CrrZI9BVu0jY-7" target="ZSL9aYJ1CrrZI9BVu0jY-9">
          <mxGeometry relative="1" as="geometry">
            <mxPoint x="1377.25" y="353" as="targetPoint" />
          </mxGeometry>
        </mxCell>
        <mxCell id="ZSL9aYJ1CrrZI9BVu0jY-4" value="not exit" style="edgeLabel;html=1;align=center;verticalAlign=middle;resizable=0;points=[];" vertex="1" connectable="0" parent="ZSL9aYJ1CrrZI9BVu0jY-3">
          <mxGeometry x="-0.3171" y="2" relative="1" as="geometry">
            <mxPoint y="1" as="offset" />
          </mxGeometry>
        </mxCell>
        <mxCell id="ZSL9aYJ1CrrZI9BVu0jY-5" value="" style="edgeStyle=orthogonalEdgeStyle;rounded=0;orthogonalLoop=1;jettySize=auto;html=1;entryX=0.5;entryY=0;entryDx=0;entryDy=0;" edge="1" parent="WIyWlLk6GJQsqaUBKTNV-1" source="ZSL9aYJ1CrrZI9BVu0jY-7" target="ZSL9aYJ1CrrZI9BVu0jY-16">
          <mxGeometry relative="1" as="geometry">
            <mxPoint x="1206.5" y="478" as="targetPoint" />
          </mxGeometry>
        </mxCell>
        <mxCell id="ZSL9aYJ1CrrZI9BVu0jY-6" value="exit" style="edgeLabel;html=1;align=center;verticalAlign=middle;resizable=0;points=[];" vertex="1" connectable="0" parent="ZSL9aYJ1CrrZI9BVu0jY-5">
          <mxGeometry x="-0.2942" y="-2" relative="1" as="geometry">
            <mxPoint x="-1" as="offset" />
          </mxGeometry>
        </mxCell>
        <mxCell id="ZSL9aYJ1CrrZI9BVu0jY-7" value="&lt;div&gt;check poNo exist in aeo_po_attachment_tmp&lt;/div&gt;&lt;div&gt;where status = pending&lt;/div&gt;&lt;div&gt;（list）&lt;br&gt;&lt;/div&gt;" style="rounded=1;whiteSpace=wrap;html=1;" vertex="1" parent="WIyWlLk6GJQsqaUBKTNV-1">
          <mxGeometry x="1123.5" y="308" width="165" height="90" as="geometry" />
        </mxCell>
        <mxCell id="ZSL9aYJ1CrrZI9BVu0jY-22" style="edgeStyle=orthogonalEdgeStyle;rounded=0;orthogonalLoop=1;jettySize=auto;html=1;exitX=0.5;exitY=1;exitDx=0;exitDy=0;entryX=0.5;entryY=0;entryDx=0;entryDy=0;" edge="1" parent="WIyWlLk6GJQsqaUBKTNV-1" source="ZSL9aYJ1CrrZI9BVu0jY-9" target="ZSL9aYJ1CrrZI9BVu0jY-14">
          <mxGeometry relative="1" as="geometry" />
        </mxCell>
        <mxCell id="ZSL9aYJ1CrrZI9BVu0jY-9" value="autoconfirm&amp;nbsp; fail" style="whiteSpace=wrap;html=1;rounded=1;" vertex="1" parent="WIyWlLk6GJQsqaUBKTNV-1">
          <mxGeometry x="1403.5" y="313.63" width="152.5" height="78.75" as="geometry" />
        </mxCell>
        <mxCell id="ZSL9aYJ1CrrZI9BVu0jY-10" value="" style="edgeStyle=orthogonalEdgeStyle;rounded=0;orthogonalLoop=1;jettySize=auto;html=1;" edge="1" parent="WIyWlLk6GJQsqaUBKTNV-1" source="ZSL9aYJ1CrrZI9BVu0jY-11" target="ZSL9aYJ1CrrZI9BVu0jY-13">
          <mxGeometry relative="1" as="geometry" />
        </mxCell>
        <mxCell id="ZSL9aYJ1CrrZI9BVu0jY-11" value="&lt;div&gt;change aeo_po_attachment_tmp&amp;nbsp;&amp;nbsp; status=moved&lt;/div&gt;&lt;div&gt;content = null&lt;br&gt;&lt;/div&gt;" style="whiteSpace=wrap;html=1;rounded=1;" vertex="1" parent="WIyWlLk6GJQsqaUBKTNV-1">
          <mxGeometry x="1132.25" y="588" width="147.5" height="72.5" as="geometry" />
        </mxCell>
        <mxCell id="ZSL9aYJ1CrrZI9BVu0jY-12" value="" style="edgeStyle=orthogonalEdgeStyle;rounded=0;orthogonalLoop=1;jettySize=auto;html=1;" edge="1" parent="WIyWlLk6GJQsqaUBKTNV-1" source="ZSL9aYJ1CrrZI9BVu0jY-13" target="ZSL9aYJ1CrrZI9BVu0jY-17">
          <mxGeometry relative="1" as="geometry" />
        </mxCell>
        <mxCell id="ZSL9aYJ1CrrZI9BVu0jY-13" value="write aeo_softcopy" style="rounded=1;whiteSpace=wrap;html=1;" vertex="1" parent="WIyWlLk6GJQsqaUBKTNV-1">
          <mxGeometry x="1126.5" y="708" width="160" height="60" as="geometry" />
        </mxCell>
        <mxCell id="ZSL9aYJ1CrrZI9BVu0jY-14" value="end" style="rounded=1;whiteSpace=wrap;html=1;" vertex="1" parent="WIyWlLk6GJQsqaUBKTNV-1">
          <mxGeometry x="1419.75" y="510" width="120" height="60" as="geometry" />
        </mxCell>
        <mxCell id="ZSL9aYJ1CrrZI9BVu0jY-15" style="edgeStyle=orthogonalEdgeStyle;rounded=0;orthogonalLoop=1;jettySize=auto;html=1;exitX=0.5;exitY=1;exitDx=0;exitDy=0;entryX=0.5;entryY=0;entryDx=0;entryDy=0;" edge="1" parent="WIyWlLk6GJQsqaUBKTNV-1" source="ZSL9aYJ1CrrZI9BVu0jY-16" target="ZSL9aYJ1CrrZI9BVu0jY-11">
          <mxGeometry relative="1" as="geometry" />
        </mxCell>
        <mxCell id="ZSL9aYJ1CrrZI9BVu0jY-16" value="&lt;div&gt;select aeo_po_attachment_tmp&lt;/div&gt;&lt;div&gt;where status = pending&lt;/div&gt;&lt;div&gt;and uploadTime = max&lt;br&gt;&lt;/div&gt;" style="rounded=1;whiteSpace=wrap;html=1;" vertex="1" parent="WIyWlLk6GJQsqaUBKTNV-1">
          <mxGeometry x="1123.5" y="458" width="165" height="90" as="geometry" />
        </mxCell>
        <mxCell id="ZSL9aYJ1CrrZI9BVu0jY-21" value="" style="edgeStyle=orthogonalEdgeStyle;rounded=0;orthogonalLoop=1;jettySize=auto;html=1;" edge="1" parent="WIyWlLk6GJQsqaUBKTNV-1" source="ZSL9aYJ1CrrZI9BVu0jY-17" target="ZSL9aYJ1CrrZI9BVu0jY-20">
          <mxGeometry relative="1" as="geometry" />
        </mxCell>
        <mxCell id="ZSL9aYJ1CrrZI9BVu0jY-17" value="&lt;div&gt;剩下的&lt;/div&gt;&lt;div&gt;aeo_po_attachment_tmp&lt;/div&gt;&lt;div&gt;record迁移到aeo_po_invalid_attachment&lt;br&gt;Reason = &lt;span class=&quot;HwtZe&quot; lang=&quot;en&quot;&gt;&lt;span class=&quot;jCAhz ChMk0b&quot;&gt;&lt;span class=&quot;ryNqvb&quot;&gt;po is covered&lt;/span&gt;&lt;/span&gt;&lt;/span&gt;&lt;/div&gt;" style="whiteSpace=wrap;html=1;rounded=1;" vertex="1" parent="WIyWlLk6GJQsqaUBKTNV-1">
          <mxGeometry x="1110" y="819" width="192" height="79" as="geometry" />
        </mxCell>
        <mxCell id="ZSL9aYJ1CrrZI9BVu0jY-18" style="edgeStyle=orthogonalEdgeStyle;rounded=0;orthogonalLoop=1;jettySize=auto;html=1;exitX=0.5;exitY=1;exitDx=0;exitDy=0;entryX=0.5;entryY=0;entryDx=0;entryDy=0;" edge="1" parent="WIyWlLk6GJQsqaUBKTNV-1" source="ZSL9aYJ1CrrZI9BVu0jY-19" target="ZSL9aYJ1CrrZI9BVu0jY-7">
          <mxGeometry relative="1" as="geometry" />
        </mxCell>
        <mxCell id="ZSL9aYJ1CrrZI9BVu0jY-19" value="获取可确认的poNum list" style="rounded=1;whiteSpace=wrap;html=1;" vertex="1" parent="WIyWlLk6GJQsqaUBKTNV-1">
          <mxGeometry x="1129" y="201" width="154" height="60" as="geometry" />
        </mxCell>
        <mxCell id="ZSL9aYJ1CrrZI9BVu0jY-20" value="走原有的逻辑" style="whiteSpace=wrap;html=1;rounded=1;" vertex="1" parent="WIyWlLk6GJQsqaUBKTNV-1">
          <mxGeometry x="1146.5" y="940" width="120" height="60" as="geometry" />
        </mxCell>
      </root>
    </mxGraphModel>
  </diagram>
</mxfile>
